<svg id="Layer_1" data-name="Layer 1" xmlns="http://www.w3.org/2000/svg" viewBox="0 0 53.44 25.34"><defs><style>.cls-1</style></defs><path fill="none" class="cls-1" d="M0,25.34V0H53.44V25.34ZM30.92.66A21.34,21.34,0,0,0,27.48,7c-.64,2.26,1.45,4.93,3.67,4.76,2.05-.16,3.69-2.64,3.14-4.8C33.69,4.64,32.28,2.75,30.92.66ZM7.28,21.38A17.08,17.08,0,0,1,2.2,23.26c-.28,0-.54.32-.81.48a6.41,6.41,0,0,0,1,.16,1.42,1.42,0,0,0,.59-.17c1.26-.55,2.55-1.06,3.78-1.67a1,1,0,0,1,1.41.24C9.76,24,11.49,23.91,13,22.15a19.73,19.73,0,0,0,1.48-2,1.17,1.17,0,0,1,1-.61c1.06-.11,2.12-.31,3.17-.5a2.73,2.73,0,0,0,.69-.33l-.08-.15-4.14.66c.84-1.47,1.34-2.77,2.66-3.65a36.57,36.57,0,0,0,4.39-3.68,7,7,0,0,0,1.37-2.08c.34-.72,0-1-.79-.95a4.69,4.69,0,0,0-3.15,1.87,26.92,26.92,0,0,0-2.62,3.76,8.17,8.17,0,0,1-2.77,3c-3,1.94-3,2-6.29,1.8A3,3,0,0,1,7,19.08a2.59,2.59,0,0,1-1-.54c-1-1-1.95-2-3.48-2-.65,0-1.4-.13-1.69.7-.17.5.33,1.18,1.22,1.46,1.14.35,2.33.53,3.49.83a1.77,1.77,0,0,1,.85.51A12.15,12.15,0,0,1,7.28,21.38ZM22.79,3l-.26.2c.59,2,1.16,4,1.79,5.9a3.61,3.61,0,0,0,2.1,2.22,13.17,13.17,0,0,0,1.86.53,4.8,4.8,0,0,0-.69-1.08,5.28,5.28,0,0,1-.2-5.84c.33-.64.07-.85-.45-1C25.56,3.61,24.17,3.31,22.79,3Zm10.53,8.8a4.28,4.28,0,0,0,3.83-2.07,20.85,20.85,0,0,0,2-6.77L34,4.16C35.61,6.92,35.71,9.39,33.32,11.79Zm-3.73.72v-.14c-.17,0-.34.09-.52.12a4.61,4.61,0,0,1-.53,0c-.78,0-1,.36-.59,1a13.53,13.53,0,0,0,1.62,2c1.27,1.34,1.32,1.35,2.62.06a11.28,11.28,0,0,0,1.7-2.13c.39-.64.15-1-.59-1C32.06,12.5,30.82,12.51,29.59,12.51Zm15.13,2.32.07.21c-.17.22-.33.44-.5.65-1.08,1.3-2.2,2.56-3.22,3.9a17.42,17.42,0,0,0-1.63,2.68,3,3,0,0,0,0,1.23,3.19,3.19,0,0,0,1.19-.24c1.4-.92,2.76-1.92,4.13-2.9A1.69,1.69,0,0,0,45,20l-.12-.16a30.72,30.72,0,0,1-4.62,3.19A2.85,2.85,0,0,1,41,20.7c1.21-1.55,2.49-3.05,3.72-4.59a11.74,11.74,0,0,0,.74-1.18l-.09-.19h6.72l0-.32a4.61,4.61,0,0,0-1.07-.25,36.28,36.28,0,0,0-3.76.05c-2.41.22-4.82.52-7.22.81-.19,0-.36.21-.54.32.19.14.38.42.55.4.38,0,.74-.27,1.13-.34C42.41,15.19,43.57,15,44.72,14.83Zm-13.54,5.9.13.23,1.6-1.1L33,20l-2.27,3.33.21.22a3.11,3.11,0,0,0,.75-.23,8.7,8.7,0,0,0,.85-.65l3.37-2.53c-.4.89-.93,1.63-1.37,2.42a1,1,0,0,0,0,.89,1,1,0,0,0,.9,0c1.63-1.06,3.22-2.18,4.83-3.27l-.19-.29c-.22.13-.44.26-.65.41-1.08.77-2.15,1.56-3.24,2.31a3.16,3.16,0,0,1-.83.31l-.12-.2.72-1c.41-.55.84-1.1,1.23-1.66a1.92,1.92,0,0,0,.11-.55c-.21,0-.46-.15-.63-.08a7.08,7.08,0,0,0-1.19.69c-1,.68-2,1.39-2.94,2.08a5.39,5.39,0,0,1-.52.3L32,22.36l2.33-3.15L34.09,19C32.85,19.07,32.12,20.09,31.18,20.73Zm.21-.65-.14-.17-.56.41c-.82.61-1.61,1.27-2.46,1.83a5.49,5.49,0,0,1-1.72.79,1.13,1.13,0,0,1-1-.33c-.3-.43.22-.61.51-.84a28.34,28.34,0,0,0,2.21-1.87c.22-.23.17-.73.24-1.1-.38,0-.9-.14-1.13.06A18,18,0,0,0,25,21.19a1.66,1.66,0,0,0-.22,2.07c.52.63,1.39.36,2,0,1.34-.78,2.61-1.68,3.9-2.54A8,8,0,0,0,31.39,20.08Zm-6.19,0-.12-.2c-.22.14-.44.26-.65.41-1.08.77-2.13,1.58-3.24,2.3a3.59,3.59,0,0,1-1.44.46c-.6.06-.91-.32-.69-.86a4.61,4.61,0,0,1,2.57-2.68c.09,0,.22,0,.42,0l-.53.85c.73.33.95-.23,1.22-.6s.17-.71-.37-.78c-1.55-.21-4,1.71-4.11,3.28-.11,1.09.31,1.52,1.38,1.25C21.87,23,23.49,21.49,25.2,20.12Zm1.65-7.78c-1.33-.28-2.85,1.19-3.28,2.77l4-.4ZM38.19,15.1c-.28-1.57-2.2-3.2-3.23-2.79l-.71,2.41Z"/><path d="M30.92.66c1.36,2.09,2.77,4,3.37,6.3.55,2.16-1.09,4.64-3.14,4.8-2.22.17-4.31-2.5-3.67-4.76A21.34,21.34,0,0,1,30.92.66Z"/><path d="M7.28,21.38a12.15,12.15,0,0,0-.94-1.33,1.77,1.77,0,0,0-.85-.51c-1.16-.3-2.35-.48-3.49-.83-.89-.28-1.39-1-1.22-1.46.29-.83,1-.71,1.69-.7,1.53,0,2.49,1,3.48,2a2.59,2.59,0,0,0,1,.54,3,3,0,0,0,.91.11c3.33.17,3.31.14,6.29-1.8a8.17,8.17,0,0,0,2.77-3,26.92,26.92,0,0,1,2.62-3.76A4.69,4.69,0,0,1,22.7,8.81c.81-.09,1.13.23.79.95a7,7,0,0,1-1.37,2.08,36.57,36.57,0,0,1-4.39,3.68c-1.32.88-1.82,2.18-2.66,3.65l4.14-.66.08.15a2.73,2.73,0,0,1-.69.33c-1.05.19-2.11.39-3.17.5a1.17,1.17,0,0,0-1,.61,19.73,19.73,0,0,1-1.48,2c-1.5,1.76-3.23,1.83-4.86.15a1,1,0,0,0-1.41-.24c-1.23.61-2.52,1.12-3.78,1.67a1.42,1.42,0,0,1-.59.17,6.41,6.41,0,0,1-1-.16c.27-.16.53-.44.81-.48A17.08,17.08,0,0,0,7.28,21.38Zm.82.08a18,18,0,0,0,1.37,1.21,1.7,1.7,0,0,0,2.13,0,9,9,0,0,0,2.31-2.94C11.67,19.23,10,20.36,8.1,21.46Zm9.16-6.61.32.31c1.52-1.45,3.06-2.87,4.55-4.36a6,6,0,0,0,.75-1.44,2.81,2.81,0,0,0-2.75,1.28C19.12,12,18.21,13.44,17.26,14.85ZM5.34,19l.11-.27A4.07,4.07,0,0,0,2.64,16.9a2.52,2.52,0,0,0-.87.28c.18.3.29.78.55.88C3.3,18.45,4.33,18.72,5.34,19Zm1.51.66L7.9,21.1,10,19.91a8.3,8.3,0,0,0-1.8-.21C7.8,19.68,7.4,19.69,6.85,19.69Zm5.35-.53c2,.21,2.49-.09,2.94-1.81Z"/><path d="M22.79,3c1.38.32,2.77.62,4.15,1,.52.12.78.33.45,1a5.28,5.28,0,0,0,.2,5.84,4.8,4.8,0,0,1,.69,1.08,13.17,13.17,0,0,1-1.86-.53,3.61,3.61,0,0,1-2.1-2.22c-.63-1.95-1.2-3.93-1.79-5.9Z"/><path d="M33.32,11.79c2.39-2.4,2.29-4.87.7-7.63L39.12,3a20.85,20.85,0,0,1-2,6.77A4.28,4.28,0,0,1,33.32,11.79Z"/><path d="M29.59,12.51c1.23,0,2.47,0,3.7,0,.74,0,1,.31.59,1a11.28,11.28,0,0,1-1.7,2.13c-1.3,1.29-1.35,1.28-2.62-.06a13.53,13.53,0,0,1-1.62-2c-.42-.65-.19-1,.59-1a4.61,4.61,0,0,0,.53,0c.18,0,.35-.08.52-.12Z"/><path d="M44.72,14.83c-1.15.19-2.31.36-3.46.58-.39.07-.75.3-1.13.34-.17,0-.36-.26-.55-.4.18-.11.35-.29.54-.32,2.4-.29,4.81-.59,7.22-.81a36.28,36.28,0,0,1,3.76-.05,4.61,4.61,0,0,1,1.07.25l0,.32H45.41l.09.19a11.74,11.74,0,0,1-.74,1.18c-1.23,1.54-2.51,3-3.72,4.59a2.85,2.85,0,0,0-.79,2.37,30.72,30.72,0,0,0,4.62-3.19L45,20a1.69,1.69,0,0,1-.27.32c-1.37,1-2.73,2-4.13,2.9a3.19,3.19,0,0,1-1.19.24,3,3,0,0,1,0-1.23,17.42,17.42,0,0,1,1.63-2.68c1-1.34,2.14-2.6,3.22-3.9.17-.21.33-.43.5-.65Z"/><path d="M31.18,20.73c.94-.64,1.67-1.66,2.91-1.78l.23.26L32,22.36l.07.11a5.39,5.39,0,0,0,.52-.3c1-.69,2-1.4,2.94-2.08a7.08,7.08,0,0,1,1.19-.69c.17-.07.42.05.63.08a1.92,1.92,0,0,1-.11.55c-.39.56-.82,1.11-1.23,1.66l-.72,1,.12.2a3.16,3.16,0,0,0,.83-.31c1.09-.75,2.16-1.54,3.24-2.31.21-.15.43-.28.65-.41l.19.29c-1.61,1.09-3.2,2.21-4.83,3.27a1,1,0,0,1-.9,0,1,1,0,0,1,0-.89c.44-.79,1-1.53,1.37-2.42l-3.37,2.53a8.7,8.7,0,0,1-.85.65,3.11,3.11,0,0,1-.75.23l-.21-.22L33,20l-.11-.13L31.31,21Z"/><path d="M31.39,20.08a8,8,0,0,1-.76.66c-1.29.86-2.56,1.76-3.9,2.54-.6.34-1.47.61-2,0A1.66,1.66,0,0,1,25,21.19a18,18,0,0,1,2.37-2.33c.23-.2.75-.05,1.13-.06-.07.37,0,.87-.24,1.1A28.34,28.34,0,0,1,26,21.77c-.29.23-.81.41-.51.84a1.13,1.13,0,0,0,1,.33,5.49,5.49,0,0,0,1.72-.79c.85-.56,1.64-1.22,2.46-1.83l.56-.41Zm-3.55-.71a2.41,2.41,0,0,0-2.2,2.22A5.66,5.66,0,0,0,27.84,19.37Z"/><path d="M25.2,20.12c-1.71,1.37-3.33,2.9-5.56,3.46-1.07.27-1.49-.16-1.38-1.25.15-1.57,2.56-3.49,4.11-3.28.54.07.67.36.37.78s-.49.93-1.22.6l.53-.85c-.2,0-.33-.07-.42,0a4.61,4.61,0,0,0-2.57,2.68c-.22.54.09.92.69.86a3.59,3.59,0,0,0,1.44-.46c1.11-.72,2.16-1.53,3.24-2.3.21-.15.43-.27.65-.41Z"/><path d="M26.85,12.34l.69,2.37-4,.4C24,13.53,25.52,12.06,26.85,12.34Z"/><path d="M38.19,15.1l-3.94-.38L35,12.31C36,11.9,37.91,13.53,38.19,15.1Z"/><path fill="none" class="cls-1" d="M8.1,21.46c1.86-1.1,3.57-2.23,5.81-1.69a9,9,0,0,1-2.31,2.94,1.7,1.7,0,0,1-2.13,0A18,18,0,0,1,8.1,21.46Z"/><path fill="none" class="cls-1" d="M17.26,14.85c.95-1.41,1.86-2.85,2.87-4.21a2.81,2.81,0,0,1,2.75-1.28,6,6,0,0,1-.75,1.44c-1.49,1.49-3,2.91-4.55,4.36Z"/><path fill="none" class="cls-1" d="M5.34,19c-1-.31-2-.58-3-1-.26-.1-.37-.58-.55-.88a2.52,2.52,0,0,1,.87-.28,4.07,4.07,0,0,1,2.81,1.86Z"/><path fill="none" class="cls-1" d="M6.85,19.69c.55,0,1,0,1.35,0a8.3,8.3,0,0,1,1.8.21L7.9,21.1Z"/><path fill="none" class="cls-1" d="M12.2,19.16l2.94-1.81C14.69,19.07,14.21,19.37,12.2,19.16Z"/><path fill="none" class="cls-1" d="M27.84,19.37a5.66,5.66,0,0,1-2.2,2.22A2.41,2.41,0,0,1,27.84,19.37Z"/></svg>